<svg class="logo" viewBox="0 0 100 100" xmlns="http://www.w3.org/2000/svg">
	<path d="M60 15.4c-.3-.4-.5-.6-.5-.7.1-.6.2-1 .2-1.7v-.4c.6.6 1.3 1.3 1.8 1.7.2.2.5.3.8.3.2 0 .3 0 .5.1h1.6c.8 0 1.6.1 2 0 .1 0 .2 0 .3-.1.6-.3 1.4-1 2.1-1.6 0 .6.1 1.2.1 1.7v1.5c0 .3 0 .5.1.7-.1.1-.2.1-.4.2-.7.4-1.7 1-2.3.9-.5-.1-1.5-.3-2.6-.7-1.2-.3-2.4-.8-3.2-1.2 0 0-.1 0-.1-.1s-.2-.4-.4-.6zm24.6 21.9c-.5-1.7-1.9-2-4.2-.7.9-1.5 2.1-1.5 2.3-2.1.9-2.5-.6-4.6-1.2-5.3.7-1.8 1.4-4.5-1-6.8-1-1-2.4-1.2-3.6-1.1 1.8 1.7 3.4 4.4 2.5 7.2-.1.3-.9.7-1.7 1 0 0 .4 2-.3 3.5-.3.6-.8 1.5-1.3 2.6 1 .9 1.6 1 3 1.3-.9.1-1.2.4-1.2.5-.7 3 1 3.4 1.4 4.8 0 .1 0 .2.1.3v.4c-.3.3-1.4.5-2.5.5s-1.8 1-1.8 1c-.2.1-.3.3-.4.4v1c0 .1 0 .4.1.6.1.5.3 1.3.4 1.8.9.6 1.4.9 2.2 1.1.5.1 1 .2 1.5.1.3-.1.7-.3 1-.7 1.5-1.7 1.9-3.2 2.2-4.1 0-.1 0-.2.1-.2 0 .1.1.1.1.2 0 0 .1-.1.1-.2l.1-.1c1.3-1.6 2.9-4.5 2.1-7zM74.3 49.9c-.1-.3-.1-.7-.2-1.1v-.2c-.1-.2-.1-.4-.2-.6 0-.1-.1-.3-.1-.5s-.1-.5-.1-.7v-.1c0-.2-.1-.5-.1-.7-.1-.3-.1-.7-.2-1.1v-.1c0-.2 0-.3-.1-.5v-.9c0-.1 0-.2.1-.3V43h-.3c-1.1.1-3.8.4-6.7.2-1.2-.1-2.4-.3-3.6-.6-1-.3-1.8-.5-2.3-.7-1.2-.4-1.6-.6-1.8-.7 0 .2-.1.4-.1.7 0 .3-.1.5-.1.8-.1.2-.1.4-.2.6l.1.1c.5.5 1.5 1.3 1.5 2.1v.2c-.1.4-.4.5-.8.9-.1.1-.6.7-1.1 1.1l-.6.6c-.1 0-.1.1-.2.1-.1.1-.3.2-.4.3-.2.1-.7.5-.8.6-.1.1-.2.1-.3.1-2.8 8.8-2.2 13.5-1.5 16.1.1.5.3 1 .4 1.3-.4.5-.8 1-1.2 1.4-1.2 1.5-2 2.6-2.6 4.2 0 .1 0 .1-.1.2 0 .1 0 .2-.1.2-.2.5-.3 1-.4 1.5-.6 2.3-.8 4.5-.9 6.6-.1 2.4-.2 4.6-.5 6.9.7.3 3.1.9 4.7.6.2-.1 0-3.9.6-5.7l.6-1.5c.4-.9.9-1.9 1.3-3.1.3-.7.5-1.5.7-2.4.1-.5.2-1 .3-1.6V74v-.1c.1-.6.1-1.3.1-2 0-.2-.7.3-1.1.9.3-1.8 1.3-2.1 2-3.2.3-.5.6-1.1.6-2 2.5-1.7 4-3.7 5-5.7.2-.4.4-.9.6-1.4.3-.8.5-1.6.7-2.4.3-1.4.8-3.2 1.2-4.8v-.1c.4-1.2.8-2.2 1.2-2.6-.2.9-.4 1.7-.6 2.5v.2c-.6 3.5-.7 6.2-2 9.2 1 2.6 1.9 3.9 2 7.6-2 0-3.2 1.6-3.7 3.2 1.2.3 3.9.7 8.3.1h.3c.1-.5.3-1.1.5-1.5.3-.8.5-1.5.6-2.2.2-1.3.1-2.4 0-3.2 3.9-3.7 2.6-11 1.6-16.6zm.3-15.1c.1-.3.2-.6.4-.8.2-.3.3-.7.5-1 .1-.3.3-.6.4-.9.5-1.5.4-2.8.3-3.5-.1 0-.1-.1-.2-.1-.5-.2-.9-.4-1.4-.6-.1 0-.2-.1-.3-.1-3.8-1.2-7.9-.9-11.9.1-1 .2-1.9.5-2.9.1-2.3-.8-3.9-1.9-4.6-2.8l-.2-.2c-.1.2-.2.4-.4.6.2 2.3-.5 3.9-1.4 5.1.9 1.2 2.6 2.8 3.6 3.4 1.1.6 1.7.7 3.4.4-.6.7-1.1 1-1.9 1.4.1.7.2 2 .5 3.4.3.3 1.2.8 2.3 1.3.5.3 1.1.5 1.7.7.8.3 1.7.6 2.4.8.1 0 .2.1.3.1.5.1 1.1.2 1.8.2h.9c2.1 0 4.5-.2 5.4-.3h.1c-.1-2.7.2-4.6.7-6.2.2-.3.4-.7.5-1.1zm-23.2 9.3v.2c-.3 1.7.5 2.4 1.9 3.4.6.5 0 .5.5.8.3.2.7.3 1 .3.3 0 .5 0 .8-.1.2-.1.4-.3.6-.5.1-.1.3-.2.5-.4.3-.2.6-.5.7-.6.1-.1.2-.1.3-.2.2-.2.5-.5.6-.7.2-.2.4-.5.5-.7 0-.1.1-.1.1-.1v-.1c.1-.4-.3-.8-.8-1.3-.2-.2-.4-.3-.5-.5-.3-.3-.6-.5-1-.7-.9-.5-1.9-.7-3-.7l-.3-.3c-2.2-2.5-3.2-4.8-3.9-6.5-.9-2.1-1.9-3.3-3.9-4.9 1 .4 1.8.8 2.3 1.1.5.4 1.3.4 1.9.2.2-.1.5-.2.7-.3.2-.1.4-.2.6-.4 1.6-1.3 2.5-3.8 2.6-5.6v-.1c.2-.3.6-1.1.8-1.4l.1.1c.1.1.3.2.6.5.1 0 .1.1.2.1.1.1.2.1.2.2.8.6 1.9 1.3 2.6 1.7 1.4.7 2.3.7 5.3-.1 2.2-.6 4.8-.8 6.8-.8 1.4 0 2.7.3 4 .7.2.1.4.1.5.2.3.1.6.2.9.4 0 0 .1 0 .1.1.8.4 2.1 1.2 2.5-.3.1-2-.6-3.9-1.6-5.3 0 0-.1 0-.1-.1-.1-.1-.2-.2-.4-.3-.1-.1-.2-.1-.3-.2-.1-.1-.2-.2-.4-.2-.6-.4-1.2-.8-1.6-.9-.1-.1-.3-.1-.4-.2h-.1-.1c-.1 0-.3-.1-.4-.1-.1 0-.1 0-.2-.1h-.1l-.2-.4c-.2-.1-.4-.2-.5-.2h-.6c-.3 0-.5.1-.7.1-.7.1-1.2.3-1.7.4-.2 0-.3.1-.5.1-.5.1-1 .2-1.6.2-.4 0-.9-.1-1.5-.2-.4-.1-.8-.2-1.1-.3-.2-.1-.4-.1-.6-.2-.6-.2-1.1-.3-1.7-.4h-.2-1.8c-.3 0-.6.1-1 .1H57.9c-.8 0-1.5 0-2.3-.1-.2 0-.5-.1-.7-.1-.5-.1-.9-.2-1.3-.4-.2-.1-.3-.1-.4-.2-.1 0-.2 0-.2-.1-.3-.1-.6-.1-.9-.1H51h-.1c-.4 0-.9.1-1.4.2-1.1.2-2.1.6-3 1.3-.3.2-.6.5-.8.8-.1.1-.2.2-.2.3-.4.6-.8 1.2-.9 2 0 .2-.1.4-.1.6 0 .2 1.7.7 2.3 2.8-.8-1.2-2.3-2.5-4.1-1.4-1.5 1-1.1 3.1-2.4 5.4-.3.5-.6.9-1 1.4-.8 1-.7 2.1.2 4.4 1.4 3.4 7.6 5.3 11.5 8.3l.4.4zm8.7-36.3c0 .6.1 1 .2 1.6v.1c0 .3.1.6.1.9.1 1.2.4 2 1 2.9 0 .1.1.1.1.2.3.2.5.3.8.4 1.1.2 3.1.3 4.2 0 .2-.1.5-.3.7-.5.4-.4.7-1.1.9-1.7.1-.7.3-1.3.4-1.8 0-.2.1-.4.1-.5v-.1c0-.2 0-.3.1-.5.2-.7.2-2.4.3-2.8.1-.7 0-1.8-.1-2.5 0-.2-.1-.4-.1-.5v-.1c-.2-.5-1.4-1.4-4.3-1.4-3.1 0-4 1-4.1 1.5v.1c0 .1 0 .3-.1.5-.1.4-.2 1.4-.2 1.9v2.3zm-6 88.6c0-.1-.1-.2-.1-.3-.7-1.5-1.1-3.5-1.3-4.6.4.1.7.6.8.3.2-.5-.4-1.5-.5-2.2v-.1c-.5-.5-4-.5-3.7-.3-.4.8-1 .6-1.3 2.1-.1.7.8.1 1.7.1-1.4.9-3 2.1-3.4 3.2-.1.1-.1.2-.1.3 0 .2-.1.4-.1.5-.1 1.2.5 1.6 2 2.4H48.4c1.4.3 3 .3 4.3.3 1.2-.2 1.6-.7 1.6-1.4-.2-.1-.2-.2-.2-.3z" style="fill:#efefef">
	</path>
	<path d="M56.1 36.5c.3 1.4.5 2.4.8 4.2h-.2c-.1.5-.1.9-.1 1.3-1-.4-2.2-.5-2.6-.5-3.7-4.4-2.9-6.1-4.4-8.3.4-.2 1-.4 1.5-.8 1.6 1.9 3.3 3 5 4.1zm-1.7 13.2s-1.4 0-2.3-1c0 0-.1-.5.1-.7 0 0-1.2-1-1.5-1.7-.2-.5-.3-1.1-.2-1.6-4.4-3.7-10.9-4.2-12.9-9.1-.5-1.2-1.3-2.9-.9-3.9-.3.1-.5.2-.8.3-2.9.9-11.7 5.3-17.9 8.8 1.6 1.7 2.6 4.3 3.2 7.2l.3 1.5c.1.5.1 1 .2 1.5.1 1.4.4 2.7.8 3.9.2.8.6 1.5.9 2.2.6 1 1.2 1.9 2.1 2.6.6.5 1.2.9 1.9 1.3 2.1 1.1 5 1.6 8.6 1.5H37.9c.5 0 1 .1 1.5.1h.1c.4.1.9.1 1.3.2h.2c.4.1.9.2 1.3.4h.1c.4.1.8.3 1.1.5h.1c.4.2.7.4 1.1.6h.1c.7.4 1.3.9 1.9 1.5l.1.1c.6.5 1.1 1.1 1.5 1.8 0 .1.1.1.1.2s.1.1.1.2c.4.6 1.2 1.1 1.9 1.3.7-.9 1.5-1.8 2.2-2.8-1.6-6 0-11.7 1.8-16.9zm-26-15.9c5-2.4 9-4.1 9.9-4.5.3-.6.6-1.4.9-2.6.1-.3.2-.5.3-.8 1-2.7 2.7-2.8 3.5-3v-.2c.1-1.1.5-2 1-2.8-8.8 2.5-18 5.5-28 11.7-.1.1-.2.2-.4.2C11.3 34.5 3 40.3 1.3 51c2.4-2.7 6-5.6 10.5-8.5.1-.1.3-.2.5-.3.2-.1.5-.3.7-.4 1.2-.7 2.4-1.4 3.6-2.2 2.2-1.2 4.5-2.4 6.7-3.5 1.8-.8 3.5-1.6 5.1-2.3zm54.9 61.3l-.3-.3c-.8-.6-4.1-1.2-5.5-2.3-.4-.3-1.1-.7-1.7-1.1-1.6-.9-3.5-1.8-3.5-2.1v-.1c-.2-1.7-.2-7 .1-8.8.3-1.8.7-4.4.8-5.1.1-.6.5-1.2.1-1.2h-.4c-.2 0-.4.1-.8.1-1.5.3-4.3.6-6.6.4-.9-.1-1.6-.2-2-.3-.5-.1-.7-.2-.9-.3H62.3c-.4.5 0 2.7.6 4.8.3 1.1.8 2 1.2 3 .3.8.6 1.8.8 3.1 0 .2.1.4.1.7.2 2.8.3 3.6-.2 4.9-.1.3-.3.6-.4 1-.4.9-.7 1.7-.6 2.3 0 .2.1.4.1.5.2.4.6.7 1.2.8.2 0 .3.1.5.1.3 0 .6.1.9.1 3.4 0 5.2 0 8.6.4 2.5.4 3.9.6 5.1.5.4 0 .9-.1 1.4-.1 1.2-.2 1.8-.5 1.9-.9-.1.2-.1.1-.2-.1zM60.2 16.4zm-.5 1.7zm3.8.5c.1 0 .3.1.5.1.4.1.7.2 1.2.3.3.1.6.1.9.1h1.3c.3-.1.7-.1 1-.2.7-.2 1.5-.4 2.7-.6h.3c.3 0 .6.1.9.3.1.1.2.1.4.2.3.2.8.2 1.2.4h.1c.1 0 .1.1.2.1.6.3 1.3.7 1.9 1.1l.3.3c.9-.1 1.6-.2 2.1-.2h.1c-.2-.4-.3-1.3-1.8-.6-.6-.7-.8-1.3-2.1-.9-.1-.2-.2-.3-.3-.4l-.1-.1c-.1-.1-.2-.3-.3-.4 0-.1-.1-.1-.1-.2-.2-.3-.5-.5-.9-.7-.7-.4-1.5-.6-2.3-.5-.2 0-.4.1-.6.2-.1 0-.2.1-.2.1-.1 0-.2.1-.3.2-.5.3-1.3.8-2.1 1-.1 0-.1 0-.2.1-.2 0-.4.1-.5.1H66.5h-.1c-.4-.1-1.1-.2-2-.5-.1 0-.2-.1-.3-.1-.9-.2-1.8-.5-2.7-.8-.3-.1-.7-.2-1-.3-.1 0-.1 0-.2-.1h-.1s-.1 0-.1-.1c-.3-.3-.7-.6-1.3-.8-.5-.2-1.2-.4-2.1-.5-.2 0-.5 0-.7.1-.4.2-.8.6-1.2.9.1.1.3.3.4.5.1.2.2.4.3.7l-.6-.6c-.5-.4-1.1-.8-1.7-.9-.8-.2-1.4.4-2.3.9 1 0 1.8.1 2.5.4.1 0 .1 0 .2.1h.1c.1 0 .2.1.3.1.9.4 1.8.6 2.7.6h1.3c.5 0 .8-.1 1.1-.1.1 0 .4 0 .7-.1h2.2c.4.4.9.6 1.6.8z" style="fill:#88ce02">
	</path>
	<path d="M100 51.8c0-19.5-12.5-36.1-30-42.1.1-1.2.2-2.4.3-3.1.1-1.5.2-3.9-.5-4.9-1.6-2.3-9.1-2.1-10.5-.1-.4.6-.7 3.6-.6 5.9-1.1-.1-2.2-.1-3.3-.1-16.5 0-30.9 9-38.6 22.3-2.4 1.4-4.7 2.8-6.1 4C5.4 38 2.2 43.2 1 47c-1.6 4.7-1.1 7.6.4 5.8 1.2-1.5 6.6-5.9 10.1-8.2-.4 2.3-.6 4.8-.6 7.2 0 21 14.5 38.5 34 43.3-.1 1.1.1 2 .7 2.6.9.8 3.2 2 6.4 1.6 2.9-.3 3.5-.5 3.2-2.9h.2c2.7 0 5.3-.2 7.8-.7.1.1.2.2.4.3 1.5 1 7.1.8 9.6.7s6.2.9 8.6.5c2.9-.5 3.4-2.3 1.6-3.2-1.5-.8-3.8-1.3-6.7-3.1C90.6 83.4 100 68.7 100 51.8zM60.1 5.5c0-.5.1-1.5.2-2.1 0-.2 0-.4.1-.5v-.1c.1-.5 1-1.5 4.1-1.5 2.9 0 4.2.9 4.3 1.4v.1c0 .1 0 .3.1.5.1.8.2 1.9.1 2.7 0 .5-.1 2.1-.2 2.9 0 .1 0 .3-.1.5v.1c0 .2-.1.3-.1.5-.1.5-.2 1.1-.4 1.8-.1.6-.5 1.2-.9 1.7-.2.3-.5.5-.7.5-1.1.3-3.1.3-4.2 0-.3-.1-.5-.2-.8-.4 0-.1-.1-.1-.1-.2-.6-.9-.9-1.7-1-2.9 0-.4-.1-.6-.1-.9v-.1c-.1-.6-.2-1-.2-1.6v-.3c-.1-1.3-.1-2.1-.1-2.1zm-.4 7.5v-.4c.6.6 1.3 1.3 1.8 1.7.2.2.5.3.8.3.2 0 .3 0 .5.1h1.6c.8 0 1.6.1 2 0 .1 0 .2 0 .3-.1.6-.3 1.4-1 2.1-1.6 0 .6.1 1.2.1 1.7v1.5c0 .3 0 .5.1.7-.1.1-.2.1-.4.2-.7.4-1.7 1-2.3.9-.5-.1-1.5-.3-2.6-.7-1.2-.3-2.4-.8-3.2-1.2 0 0-.1 0-.1-.1-.2-.3-.4-.5-.6-.7-.3-.4-.5-.6-.5-.7.3-.4.4-.9.4-1.6zm.5 3.4zm-7.3-.3c.6.1 1.2.5 1.7.9.2.2.5.4.6.6-.1-.2-.2-.5-.3-.7-.1-.2-.3-.4-.4-.5.4-.3.8-.7 1.2-.9.2-.1.4-.1.7-.1.9.1 1.6.2 2.1.5.6.2 1 .5 1.3.8 0 0 .1 0 .1.1h.1c.1 0 .1 0 .2.1.3.1.6.2 1 .3.9.3 1.9.6 2.7.8.1 0 .2.1.3.1.9.2 1.6.4 2 .5h.4c.2 0 .4 0 .5-.1.1 0 .1 0 .2-.1.7-.2 1.5-.7 2.1-1 .1-.1.2-.1.3-.2.1 0 .2-.1.2-.1.2-.1.4-.2.6-.2.8-.2 1.7.1 2.3.5.3.2.6.4.9.7 0 .1.1.1.1.2.1.2.2.3.3.4l.1.1c.1.1.2.2.3.4 1.3-.4 1.5.2 2.1.9 1.6-.7 1.7.2 1.8.6h-.1c-.5 0-1.2 0-2.1.2l-.3-.3c-.5-.4-1.2-.8-1.9-1.1-.1 0-.1-.1-.2-.1h-.1c-.4-.2-.8-.2-1.2-.4-.1-.1-.2-.1-.4-.2-.3-.1-.6-.3-.9-.3h-.3c-1.2.1-2 .4-2.7.6-.3.1-.7.2-1 .2-.4.1-.8.1-1.3 0-.3 0-.6-.1-.9-.1-.5-.1-.8-.2-1.2-.3-.2 0-.3-.1-.5-.1h-.1c-.6-.2-1.2-.3-1.8-.4h-.1-2.1c-.4.1-.6.1-.7.1-.3 0-.7.1-1.1.1h-1.3c-.9 0-1.9-.2-2.7-.6-.1 0-.2-.1-.3-.1H53c-.1 0-.1 0-.2-.1-.7-.3-1.6-.4-2.5-.4 1.2-.8 1.8-1.4 2.6-1.3zm6.8 2zm-15.2 4.1c.1-.7.4-1.4.9-2 .1-.1.2-.2.2-.3l.8-.8c.9-.6 1.9-1.1 3-1.3.5-.1 1-.2 1.4-.2H52c.3 0 .6.1.9.1.1 0 .2 0 .2.1.1.1.2.1.4.2.4.2.8.3 1.3.4.2 0 .5.1.7.1.7.1 1.5.1 2.3.1H58.7c.4 0 .7-.1 1-.1H61.7c.6.1 1.1.2 1.7.4.2 0 .4.1.6.2.3.1.7.2 1.1.3.6.1 1.1.2 1.5.2.6 0 1.1-.1 1.6-.2.2 0 .3-.1.5-.1.5-.1 1-.3 1.7-.4.2 0 .5-.1.7-.1h.6c.2 0 .4.1.5.2l.1.1h.1c.1 0 .1 0 .2.1.2.1.3.1.4.1h.2c.1.1.3.1.4.2.4.2 1 .6 1.6.9.1.1.2.2.4.2.1.1.2.1.3.2.2.1.3.3.4.3l.1.1c1.1 1.4 1.8 3.3 1.6 5.3-.3 1.5-1.6.7-2.5.3 0 0-.1 0-.1-.1-.3-.1-.6-.2-.9-.4-.2-.1-.4-.1-.5-.2-1.2-.4-2.5-.7-4-.7-2 0-4.6.1-6.8.8-3 .8-4 .8-5.3.1-.8-.4-1.8-1.1-2.6-1.7-.1-.1-.2-.1-.2-.2-.1-.1-.1-.1-.2-.1-.3-.2-.6-.4-.6-.5l-.1-.1c-.2.3-.6 1-.8 1.4v.1c-.1 1.7-1 4.2-2.6 5.6-.2.1-.4.3-.6.4-.2.1-.5.2-.7.3-.7.2-1.4.2-1.9-.2-.5-.3-1.3-.7-2.3-1.1 2 1.6 3 2.8 3.9 4.9.7 1.7 1.7 4 3.9 6.5l.3.3c1.1 0 2.1.2 3 .7.4.2.7.4 1 .7.2.2.4.3.5.5.5.4.9.8.8 1.3v.1s0 .1-.1.1c-.1.2-.3.5-.5.7-.1.1-.4.4-.6.7-.1.1-.2.2-.3.2-.1.1-.4.3-.7.6-.2.2-.4.3-.5.4-.2.1-.4.4-.6.5-.3.1-.5.2-.8.1-.3 0-.7-.2-1-.3-.5-.3.1-.3-.5-.8-1.4-1-2.2-1.7-1.9-3.4v-.2c-.2-.1-.3-.3-.5-.4-3.9-3-10.1-4.9-11.5-8.3-.9-2.3-1-3.4-.2-4.4.4-.5.8-1 1-1.4 1.3-2.3.9-4.4 2.4-5.4 1.8-1.2 3.3.2 4.1 1.4-.5-2.1-2.3-2.6-2.3-2.8.3.1.3-.1.3-.3zm29 20s-.1 0 0 0c-.1 0-.1 0 0 0-.9.1-3.3.3-5.4.3h-.9c-.7 0-1.3-.1-1.8-.2-.1 0-.2 0-.3-.1-.7-.2-1.6-.5-2.4-.8-.6-.2-1.2-.5-1.7-.7-1.1-.5-2.1-1.1-2.3-1.3-.5-1.4-.7-2.7-.7-3.4.8-.4 1.3-.7 1.9-1.4-1.7.3-2.4.2-3.4-.4-1-.5-2.6-2.2-3.6-3.4 1-1.2 1.7-2.9 1.4-5.1.1-.2.3-.4.4-.6 0 .1.1.1.2.2.7.9 2.4 2 4.6 2.8 1.1.4 2 .1 2.9-.1 4-1 8.1-1.3 11.9-.1.1 0 .2.1.3.1.5.2.9.4 1.4.6.1 0 .1.1.2.1.1.7.2 2-.3 3.5-.1.3-.2.6-.4.9-.2.3-.3.6-.5 1-.1.3-.2.5-.4.8-.2.4-.3.8-.5 1.3-.4 1.4-.7 3.4-.6 6zm-23.9-9c.4-.2 1-.4 1.5-.8 1.6 1.8 3.3 3 5 4.1.3 1.4.5 2.4.8 4.2h-.2c-.1.5-.1.9-.1 1.3-1-.4-2.2-.5-2.6-.5-3.7-4.3-3-6-4.4-8.3zm-32.9 6.5c-1.3.7-2.5 1.4-3.6 2.2-.2.1-.5.3-.7.4-.1.1-.3.2-.5.3-4.5 2.9-8.1 5.8-10.5 8.5 1.7-10.8 10-16.5 14.3-19.2.1-.1.2-.2.4-.2 10-6.2 19.2-9.2 28-11.7-.5.8-.9 1.7-1 2.8v.2c-.8.1-2.5.2-3.5 3-.1.2-.2.5-.3.8-.3 1.2-.6 2-.9 2.6-.9.4-5 2.2-9.9 4.5-1.6.8-3.3 1.6-5 2.4-2.3 1-4.6 2.2-6.8 3.4zm28 24.8s0-.1 0 0c-.4-.3-.8-.5-1.2-.7h-.1c-.4-.2-.7-.3-1.1-.5h-.1c-.4-.1-.8-.3-1.3-.4h-.2c-.4-.1-.8-.2-1.3-.2h-.1c-.5-.1-1-.1-1.5-.1H35.9c-3.7.1-6.5-.4-8.6-1.5-.7-.4-1.4-.8-1.9-1.3-.9-.7-1.5-1.6-2.1-2.6-.4-.7-.7-1.4-.9-2.2-.4-1.2-.6-2.5-.8-3.9 0-.5-.1-1-.2-1.5l-.3-1.5c-.6-2.9-1.6-5.5-3.2-7.2 6.3-3.5 15-7.9 17.8-8.8.3-.1.6-.2.8-.3-.3 1.1.4 2.7.9 3.9 2.1 4.9 8.6 5.4 12.9 9.1 0 .5 0 1.1.2 1.6.5.6 1.7 1.6 1.7 1.6-.2.2-.1.7-.1.7.9 1 2.3 1 2.3 1-1.8 5.2-3.4 10.9-1.9 16.9-.7 1-1.5 1.8-2.2 2.8-.7-.2-1.4-.6-1.9-1.3 0-.1-.1-.1-.1-.2s-.1-.1-.1-.2l-1.5-1.8-.1-.1c-.5-.4-1.2-.9-1.9-1.3zm7.9 33.6c-1.3.1-2.9 0-4.3-.3h-.2-.1c-1.5-.8-2.1-1.2-2-2.4 0-.2 0-.3.1-.5 0-.1.1-.2.1-.3.5-1.1 2.1-2.2 3.4-3.2-.8 0-1.8.7-1.7-.1.2-1.5.9-1.3 1.3-2.1-.2-.3 3.3-.2 3.8.3v.1c0 .7.7 1.7.5 2.2-.1.3-.4-.2-.8-.3.2 1.1.6 3.1 1.3 4.6.1.1.1.2.1.3 0 .1.1.2.1.3 0 .7-.4 1.2-1.6 1.4zM59 67.7c0 .9-.3 1.6-.6 2-.7 1.1-1.7 1.4-2 3.2.4-.6 1.1-1.1 1.1-.9 0 .8-.1 1.4-.1 2v.2c-.1.6-.2 1.1-.3 1.6-.2.9-.5 1.7-.7 2.4-.4 1.2-.9 2.1-1.3 3.1l-.6 1.5c-.6 1.7-.4 5.6-.6 5.7-1.6.3-4.1-.3-4.7-.6.3-2.2.4-4.5.5-6.9.1-2.1.3-4.3.9-6.6.1-.5.3-1 .4-1.5 0-.1 0-.2.1-.2 0-.1 0-.1.1-.2.5-1.6 1.4-2.7 2.6-4.2.4-.4.7-.9 1.2-1.4-.1-.4-.2-.8-.4-1.3-.7-2.6-1.3-7.3 1.5-16.1.1 0 .2-.1.3-.1.2-.1.7-.5.8-.6.1-.1.3-.2.4-.3.1 0 .1-.1.2-.1l.6-.6 1.1-1.1c.4-.4.7-.5.8-.9v-.2c0-.8-1.1-1.5-1.5-2.1l-.1-.1c.1-.2.1-.4.2-.6 0-.2.1-.5.1-.8 0-.2.1-.5.1-.7.1.1.6.4 1.8.7.6.2 1.3.4 2.3.7 1.1.3 2.4.5 3.6.6 2.9.2 5.6 0 6.7-.2h.3v.1c0 .1 0 .2-.1.3v.9c0 .2 0 .3.1.5v.1c0 .4.1.7.2 1.1 0 .3.1.5.1.7v.1c0 .3.1.5.1.7 0 .2.1.3.1.5.1.2.1.4.2.6v.2c.1.4.2.8.2 1.1 1 5.7 2.3 12.9-1.1 16.7.2.8.3 1.9 0 3.2-.1.7-.3 1.4-.6 2.2-.2.5-.3 1-.5 1.5h-.3c-4.5.6-7.1.2-8.3-.1.5-1.6 1.7-3.3 3.7-3.2-.1-3.7-1.1-5-2-7.6 1.3-3 1.3-5.7 2-9.2v-.2c.2-.8.3-1.6.6-2.5-.4.5-.8 1.5-1.2 2.6v.1c-.5 1.5-.9 3.4-1.2 4.8-.2.8-.4 1.6-.7 2.4-.2.5-.4.9-.6 1.4-1.5 1.9-3 3.9-5.5 5.6zm18.5 24.9c1.5 1.1 4.7 1.8 5.5 2.3l.3.3c.1.1.1.2.1.3-.1.4-.7.7-1.9.9-.5.1-.9.1-1.4.1-1.3 0-2.6-.2-5.1-.5-3.4-.5-5.2-.4-8.6-.4-.3 0-.6 0-.9-.1-.2 0-.4-.1-.5-.1-.6-.2-1-.5-1.2-.8-.1-.2-.1-.3-.1-.5-.1-.7.2-1.5.6-2.3.2-.4.3-.7.4-1 .5-1.3.4-2.1.2-4.9 0-.2-.1-.4-.1-.7-.2-1.3-.5-2.3-.8-3.1-.4-1.1-.9-1.9-1.2-3-.6-2.1-1-4.3-.6-4.8H62.5c.2.1.5.2.9.3.5.1 1.1.2 2 .3 2.2.2 5.1-.2 6.6-.4.3-.1.6-.1.8-.1h.4c.4 0 .1.6-.1 1.2-.1.7-.5 3.3-.8 5.1-.3 1.8-.2 7.1-.1 8.8v.1c0 .3 1.9 1.2 3.5 2.1.7.2 1.4.5 1.8.9zm4.8-48.2c0 .1 0 .1 0 0-.1.1-.2.2-.2.3 0-.1-.1-.1-.1-.2 0 .1 0 .2-.1.2-.2.9-.6 2.4-2.2 4.1-.4.4-.7.6-1 .7-.5.1-.9 0-1.5-.1-.9-.2-1.3-.6-2.2-1.1-.1-.6-.3-1.3-.4-1.8 0-.3-.1-.5-.1-.6v-1l.4-.4s.7-1 1.8-1 2.2-.2 2.5-.5v-.1-.3c0-.1 0-.2-.1-.3-.4-1.4-2.1-1.8-1.4-4.8 0-.2.3-.5 1.2-.5-1.4-.3-2-.4-3-1.3.5-1.1 1-1.9 1.3-2.6.8-1.5.3-3.5.3-3.5.8-.3 1.6-.7 1.7-1 .9-2.8-.7-5.5-2.5-7.2 1.2-.1 2.6.1 3.6 1.1 2.4 2.4 1.8 5 1 6.8.6.7 2.1 2.9 1.2 5.3-.2.6-1.4.6-2.3 2.1 2.3-1.3 3.7-1 4.2.7 1 2.4-.6 5.3-2.1 7z">
	</path>
	<path d="M22 53.4v-.2c0-.2-.1-.5-.2-.9s-.1-.8-.2-1.3c-.5-4.7-1.9-9.4-4.9-11.3 3.7-2 16.8-8.5 21.9-10.5 2.9-1.2.8-.4-.2 1.4-.8 1.4-.3 2.9-.5 3.2-.6.8-12.6 10.5-15.9 19.6zm32.2-2.3c-3.4 3.8-12 11-18.2 11.4 8.7-.2 12.2 4.1 14.7 9.7 2.6-5.2 2.7-10.3 2.6-16.1 0-2.6 1.8-6 .9-5zm5.3-23L54.3 24s-1.1 3.1-1 4.6c.1 1.6-1.8 2.7-.9 3.6.9.9 3.2 2.5 4 3.4.7.9 1.1 7.1 1.1 7.1l2.2 2.7s1-1.8 1.1-6.3c.2-5.4-2.9-7.1-3.3-8.6-.4-1.4.6-2.9 2-2.4zm3.1 45.6l3.9.3s1.2-2.2 2.1-3.5c.9-1.4.4-1.6 0-4.6-.4-3-1.4-9.3-1.2-13.6l-3.1 10.2s1.8 5.6 1.6 6.4c-.1.8-3.3 4.8-3.3 4.8zm5 18.8c-1.1 0-2.5-.4-3.5-.8l-1 .3.2 4s5.2.7 4.6-.4c-.6-1.2-.3-3.1-.3-3.1zm12 .6c-1 0-.3.2.4 1.2.8 1 .1 2-.8 2.3l3.2.5 1.9-1.7c.1 0-3.7-2.3-4.7-2.3zM73 76c-1.6.5-4.2.8-5.9.8-1.7.1-3.7-.1-5-.5v1.4s1.2.5 5.4.5c3.5.1 5.7-.8 5.7-.8l.9-.8c-.1.1.5-1.1-1.1-.6zm-.2 3.1c-1.6.6-3.9.6-5.6.7-1.7.1-3.7-.1-5-.5l.1 1.4s.7.3 4.9.4c3.5.1 5.7-.7 5.7-.7l.3-.5c-.1-.1.3-1-.4-.8zm5.9-42.7c-.9-.8-1.4-2.4-1.5-3.3l-1.9 2.5.7 1.2s2.5.1 2.8.1c.4 0 .3-.1-.1-.5zM69 14.7c.6-.7.2-2.7.2-2.7L66 14.6l-4.4-.8-.5-1.3-1.3-.1c.8 1.8 1.8 2.5 3.3 3.1.9.4 4.5.9 5.9-.8z" style="opacity:.4;fill-rule:evenodd;clip-rule:evenodd">
	</path>
</svg>
